#!OML:ASF F:\VICON\USERDATA\INSTALL\rory3\rory3.ASF
:FULLY-SPECIFIED
:DEGREES
39
root 0.1779096412440069 17.830921477406214 15.125367925945696 -2.8851095714521913 -4.125153495786605 -4.970836132267668
lfemur -8.805502966745399 1.408620747483067 -10.261065155036103
ltibia 60.55903932818049
lfoot -3.3523177473613583 0.4506407336222753
ltoes -6.48712306675354
rfemur -11.568630677670349 6.029837234125527 29.332322719704415
rtibia 25.429314714250744
rfoot -14.416564332025484 -9.36634294999287
rtoes -2.9291263066362156
lowerback 1.0 0.5129118054511168 3.436395744550486
upperback 0.4318839975984432 1.4338048549055296 3.123118743390145
thorax -5.179951383980405 0.6961394497480604 1.4228115373434935
lowerneck -17.22673431914687 -2.6344153688875243 -1.4703717333803468
upperneck 21.872137855571772 -3.300466545392518 0.4214774919566532
head 9.812134387900533 -1.6380520990841416 0.08412380658127266
lclavicle -1.057797387368739e-15 -3.9651043223862655e-16
lhumerus -26.728734295810185 -3.575566604980147 83.99863230479063
lradius 21.025869688053625
lwrist 7.165603833931582
lhand -27.541951666084984 22.75934761830623
lfingers nan
lthumb -0.7854122282272105 52.930900464771355
rclavicle -1.1393076666438524e-15 -4.636621742383964e-16
rhumerus -29.814976648467212 -25.116108025845975 -76.54203915753322
rradius 25.42070169080225
rwrist 6.680338152530221
rhand -17.629994798109387 1.0
rfingers nan
rthumb 8.7238735253705 -7.833030434981456
40
root 0.1977122897621158 17.826509349307333 15.880482197837075 -2.9114195398524694 -3.348743348967018 -5.765603364234048
lfemur -12.714503727531724 1.557815195690818 -10.105935048160655
ltibia 61.70496747441117
lfoot -4.033505895987073 0.5037293642505887
ltoes -6.4187819291062045
rfemur -8.451628988020309 5.902659755361675 30.22019859821944
rtibia 27.337849133524944
rfoot -15.502143343849152 -10.166285455350701
rtoes -3.9594658415164052
lowerback 1.0 0.6935029323870977 4.264286738708657
upperback 0.44630930259006846 1.849133756767384 3.197104048675982
thorax -5.164859141046648 0.9073361414808593 0.8940260299084146
lowerneck -17.297920285275534 -2.6727141475735294 -1.3524860985731155
upperneck 21.744670091208544 -3.3721074623378406 0.42959822606538084
head 9.784269595475457 -1.6670704220764594 0.05455174481360331
lclavicle -1.0557839378197202e-15 -3.967429414047777e-16
lhumerus -27.80339325129861 -2.5704412932323164 84.25316051408517
lradius 20.536495965225317
lwrist 7.2742404352475685
lhand -27.47984045304662 22.798954494262393
lfingers nan
lthumb -0.7743625575720958 52.86989547462948
rclavicle -1.1400500768600374e-15 -4.655544434051282e-16
rhumerus -28.70974187661434 -23.333958381337414 -76.89021124107045
rradius 25.700623852122362
rwrist 5.828982665071848
rhand -17.75431795550239 1.0
rfingers nan
rthumb 8.654141607209295 -7.992734307110282
41
root 0.23193408878467062 17.82521776656097 17.295517166061845 -2.9751009906480097 -2.9057684676936986 -6.046156914734611
lfemur -17.85756698953428 0.9420959376604237 -10.936786995575394
ltibia 61.81297236719983
lfoot -5.700229641698218 3.3205919305375424
ltoes -6.82650346508826
rfemur -5.460831134090351 5.735651743826962 30.484359759447113
rtibia 28.743646017937987
rfoot -15.392852935775739 -10.699362440175221
rtoes -2.6393885356800992
lowerback 1.0 0.948933743586506 4.759040592261372
upperback 0.42573553714587875 2.3153000399329837 3.0908647387161206
thorax -5.159053816651593 1.1436730616230268 0.4739719984050139
lowerneck -17.31019182867132 -2.725636378729597 -1.241736792688856
upperneck 21.50919497234695 -3.4537813351791153 0.46551159537339726
head 9.667093984420424 -1.7067763905310342 0.036865326206923954
lclavicle -1.0564834335232188e-15 -3.9984618159421667e-16
lhumerus -29.172847348922293 -1.5894970030707214 84.52341021669929
lradius 20.697213111371305
lwrist 7.381731479676175
lhand -27.402119768047665 22.898926310024404
lfingers nan
lthumb -0.7301194615737256 52.86118163055165
rclavicle -1.1345085906541247e-15 -4.629004466101403e-16
rhumerus -27.744237755745033 -21.631390793614337 -77.15104652831381
rradius 26.081420468111858
rwrist 5.592656073609622
rhand -17.74540718648707 1.0
rfingers nan
rthumb 8.617911341517594 -8.369316529832744
42
root 0.260065464057857 17.82786239313317 18.28068277959942 -3.0194612422572993 -2.652558422085893 -6.1275409588321565
lfemur -20.235923117912208 0.4877183830939549 -11.68043104850756
ltibia 59.62089321718837
lfoot -8.035513766881914 2.9206448596316075
ltoes -5.137627590308635
rfemur -3.119987533982769 5.655577260181306 30.56715427543351
rtibia 29.63672625473899
rfoot -14.180994086661226 -10.854015581262914
rtoes -0.37832549550192773
lowerback 1.0 1.1155155599774524 5.029825523906812
upperback 0.42043900331269296 2.639732710517506 2.829809489446125
thorax -5.107920753148019 1.30435457178263 0.09066289908673242
lowerneck -17.30804065374932 -2.791288620849248 -1.1250505739372594
upperneck 21.29405685793479 -3.5633736630193074 0.4579701407358815
head 9.558425723967506 -1.755086662981498 -0.004636436757037898
lclavicle -1.0565899125113753e-15 -4.0192826015887513e-16
lhumerus -30.643841747895973 -0.6464315466220605 84.76729689357036
lradius 21.1521884686217
lwrist 7.4966078546684365
lhand -27.3004691378541 23.048703487361227
lfingers nan
lthumb -0.6439436198568161 52.96198326511359
rclavicle -1.1312564394834488e-15 -4.617405477323471e-16
rhumerus -26.92114167704885 -20.148565456362142 -77.24674734928966
rradius 26.56301827300832
rwrist 5.583653662996959
rhand -17.727719079103487 1.0
rfingers nan
rthumb 8.565228867064912 -8.600667252062756
43
root 0.28805837105010035 17.831770834940087 19.154831666044153 -3.2086504061409733 -2.427570178574918 -5.8030110996896855
lfemur -21.316621258972557 0.0405694516170354 -12.555774434191276
ltibia 55.362493706251016
lfoot -9.287599068635567 3.772797368713528
ltoes -5.423405272036546
rfemur -1.3254541840617087 5.579261203349871 30.23582414388178
rtibia 30.462024337574686
rfoot -12.12255620594943 -10.521945735562007
rtoes 0.5364245319386414
lowerback 1.0 1.2523098198019929 4.924281103364026
upperback 0.4446265984607175 2.7657112328175333 2.46866283774518
thorax -5.023579822315566 1.3729961637706198 -0.19894024012444778
lowerneck -17.251685780415762 -2.8620900936533804 -1.0385365050137167
upperneck 21.11923406857258 -3.674068726223925 0.45277706746160623
head 9.474915174126549 -1.8023215341215078 -0.04557922526053837
lclavicle -1.0551926595871276e-15 -4.0253605711190686e-16
lhumerus -32.1454124886683 0.19879663730030633 84.91682153970818
lradius 21.7813191130467
lwrist 7.540418817501306
lhand -27.22344629270298 23.15162449215266
lfingers nan
lthumb -0.6101348905907001 52.91673850367002
rclavicle -1.1297478132748595e-15 -4.617866629331502e-16
rhumerus -26.25629264213148 -18.794714084624516 -77.2210181591798
rradius 27.147152908737066
rwrist 5.085680595433306
rhand -17.705524314218447 1.0
rfingers nan
rthumb 8.524739062967065 -8.604600942647581
44
root 0.32344357369901905 17.83906317657765 20.274170870587756 -3.2711753225011755 -2.0959918213308426 -5.861735144856576
lfemur -21.873886440734793 -0.44166027799286 -13.103254474652385
ltibia 49.90305042799635
lfoot -9.88215514351294 4.459769725397935
ltoes -5.930896138040395
rfemur 0.16116676316793388 5.613605324053189 30.33177818424705
rtibia 31.347632257579527
rfoot -9.345541197771357 -9.891921228439946
rtoes 1.0177479866031858
lowerback 1.0 1.3343341987350197 4.986404677722669
upperback 0.4597231022156249 2.787808711508687 2.253963484772509
thorax -4.947133093194282 1.3836882405860629 -0.35367439836569825
lowerneck -17.15832163117813 -2.9346062140054667 -1.041843662014018
upperneck 21.04821979598401 -3.790255046636364 0.4512916153206537
head 9.476476341175248 -1.843714007613554 -0.08462016667828118
lclavicle -1.050277293006293e-15 -3.998177425193963e-16
lhumerus -33.3967789862114 1.0056989638661171 84.94719376063394
lradius 22.46838056399833
lwrist 7.568455680740824
lhand -27.197444696304174 23.159180168585568
lfingers nan
lthumb -0.6268605665917415 52.84170975972988
rclavicle -1.1265442202600941e-15 -4.601011869002945e-16
rhumerus -25.804532339511464 -17.635846905013477 -77.10379337758943
rradius 27.800248053628764
rwrist 4.933331360885053
rhand -17.610782367484806 1.0
rfingers nan
rthumb 8.565310359912138 -8.252409186918051
45
root 0.3477985742031163 17.844730191629434 20.909038660844153 -3.266382642191397 -1.9314781658106657 -6.495886719068428
lfemur -21.863040160827552 -0.8354607447906979 -13.106423697251635
ltibia 43.77705878630416
lfoot -8.361153374726909 6.1525834445143115
ltoes -8.939501170744393
rfemur 1.2833303588018286 5.934317907131234 31.114590045712216
rtibia 32.24502055303742
rfoot -6.366576262711946 -9.461773570909212
rtoes 2.0441854859655786
lowerback 1.0 1.387409449384824 5.359889085409593
upperback 0.43306349453186227 2.9313476131909946 2.227748657407453
thorax -4.92983128413328 1.4388377268606098 -0.7134812841563534
lowerneck -16.986870371236964 -2.99228903482169 -1.0347551824370487
upperneck 20.97092376198545 -3.878561505367804 0.45631138388555315
head 9.511124806895948 -1.8729561684015814 -0.11553144554066358
lclavicle -1.0478103806692056e-15 -3.985307127117506e-16
lhumerus -34.35234434255946 1.7078759022325136 84.8531421190664
lradius 23.159039269022543
lwrist 7.578379419095819
lhand -27.215914307878837 23.20618911618891
lfingers nan
lthumb -0.7166106847654958 52.76011944168658
rclavicle -1.1245293305984392e-15 -4.590105575768438e-16
rhumerus -25.6319437735148 -16.67657103448823 -77.04286257476274
rradius 28.430925708539743
rwrist 5.090163525070648
rhand -17.571672278629382 1.0
rfingers nan
rthumb 8.5780630830325 -8.013954359398952
46
root 0.3622100015586953 17.846809291395495 21.513340883322314 -3.2739577362584367 -1.9289992616794356 -7.109012807307018
lfemur -21.157230667481777 -1.1116631673883492 -13.107635978760932
ltibia 37.3945151698131
lfoot -7.829768315708135 4.782891054245906
ltoes -11.255812642870733
rfemur 1.79074318793141 6.334686612193856 31.865284154955106
rtibia 33.666596157583896
rfoot -3.7584104653661417 -9.57871644376987
rtoes 3.55860584817269
lowerback 1.0 1.5865294378022448 5.777568006705854
upperback 0.41518225234572953 3.229868806974797 2.181603647775319
thorax -4.903095249382717 1.5879520568316816 -0.9352255115870389
lowerneck -16.871580446846668 -3.058757376839769 -1.0996357710851206
upperneck 20.94715974506125 -3.97496801505807 0.4844869704203525
head 9.527958680173082 -1.9087720368788663 -0.13069873128558493
lclavicle -1.0472788326260822e-15 -3.9955558835279595e-16
lhumerus -34.95575341387122 2.307681548238667 84.69097751078986
lradius 23.78296301496231
lwrist 7.602707472396219
lhand -27.33791677355058 23.143663261963532
lfingers nan
lthumb -0.8467211937499048 52.681846935799605
rclavicle -1.1205246770380376e-15 -4.568089153883105e-16
rhumerus -25.62153760913579 -15.756928996888574 -77.11948722017492
rradius 28.955105262013554
rwrist 5.442687126158103
rhand -17.54010875635211 1.0
rfingers nan
rthumb 8.558571910639841 -7.908810480552927
